<?xml version="1.0" encoding="UTF-8" standalone="no"?>
<!-- Created with Inkscape (http://www.inkscape.org/) -->

<svg
   xmlns:dc="http://purl.org/dc/elements/1.1/"
   xmlns:cc="http://creativecommons.org/ns#"
   xmlns:rdf="http://www.w3.org/1999/02/22-rdf-syntax-ns#"
   xmlns:svg="http://www.w3.org/2000/svg"
   xmlns="http://www.w3.org/2000/svg"
   xmlns:sodipodi="http://sodipodi.sourceforge.net/DTD/sodipodi-0.dtd"
   xmlns:inkscape="http://www.inkscape.org/namespaces/inkscape"
   width="210mm"
   height="297mm"
   viewBox="0 0 210 297"
   version="1.1"
   id="svg8"
   inkscape:version="0.92.5 (2060ec1f9f, 2020-04-08)"
   sodipodi:docname="logo.svg">
  <defs
     id="defs2" />
  <sodipodi:namedview
     id="base"
     pagecolor="#ffffff"
     bordercolor="#666666"
     borderopacity="1.0"
     inkscape:pageopacity="0.0"
     inkscape:pageshadow="2"
     inkscape:zoom="1"
     inkscape:cx="42.038043"
     inkscape:cy="194.05672"
     inkscape:document-units="mm"
     inkscape:current-layer="layer1"
     showgrid="false"
     inkscape:window-width="1892"
     inkscape:window-height="1020"
     inkscape:window-x="1934"
     inkscape:window-y="46"
     inkscape:window-maximized="0" />
  <metadata
     id="metadata5">
    <rdf:RDF>
      <cc:Work
         rdf:about="">
        <dc:format>image/svg+xml</dc:format>
        <dc:type
           rdf:resource="http://purl.org/dc/dcmitype/StillImage" />
        <dc:title></dc:title>
      </cc:Work>
    </rdf:RDF>
  </metadata>
  <g
     inkscape:label="Layer 1"
     inkscape:groupmode="layer"
     id="layer1">
    <path
       style="fill:#000000;fill-opacity:0.6713781;stroke-width:0.12785551"
       d="m 23.5935,257.62372 c -4.403655,0.18915 -8.741874,1.03666 -13.068348,1.82503 -1.116986,7.62668 -1.237815,15.43161 0.0286,23.04791 10.453241,2.69132 21.508444,2.43381 32.022904,0.21092 1.259147,-7.60332 1.195487,-15.39309 0.117975,-23.01394 -6.139599,-2.04947 -12.694759,-2.16294 -19.101131,-2.06992 z"
       id="path828"
       inkscape:connector-curvature="0" />
    <path
       style="fill:#ffffff;stroke-width:0.12785551"
       d="m 23.574167,283.03308 c -1.393688,-0.10653 -3.970762,-0.424 -7.832548,-0.96491 -3.04848,-0.42698 -3.945847,-0.594 -3.990287,-0.74265 -0.132903,-0.44458 -0.454379,-3.96482 -0.589639,-6.45671 -0.146846,-2.70529 -0.08744,-6.74499 0.142905,-9.71701 0.175461,-2.26394 0.406644,-4.37704 0.494052,-4.51582 0.08201,-0.13022 8.130866,-1.31344 10.688745,-1.57129 2.126115,-0.21432 6.636116,-0.18115 8.885096,0.0653 1.753862,0.19225 9.22107,1.18019 9.793422,1.29573 0.240864,0.0486 0.282215,0.1966 0.417724,1.495 0.452049,4.33132 0.600734,8.86916 0.413782,12.6284 -0.150519,3.02658 -0.497566,6.78492 -0.640683,6.93819 -0.101727,0.10896 -6.330798,0.9929 -9.21625,1.30784 -1.805784,0.1971 -7.156061,0.34566 -8.566319,0.23787 z m 8.239311,-1.51715 c 2.362163,-0.24806 8.254439,-1.04317 8.336158,-1.12489 0.142647,-0.14264 0.440845,-3.4611 0.568889,-6.33082 0.101869,-2.28312 0.09993,-3.93181 -0.0073,-6.20099 -0.158605,-3.35679 -0.41748,-6.05723 -0.595433,-6.21119 -0.105123,-0.091 -2.735179,-0.46759 -7.33604,-1.05055 -1.272237,-0.1612 -3.194818,-0.27794 -5.369931,-0.32604 -3.784731,-0.0837 -5.068751,0.0146 -10.292369,0.78834 -1.617373,0.23955 -3.207504,0.47271 -3.533627,0.51814 -0.563922,0.0785 -0.596506,0.10543 -0.665605,0.54966 -0.665796,4.28037 -0.701436,12.86801 -0.07174,17.2863 l 0.137549,0.96511 3.856688,0.53641 c 2.121179,0.29502 4.51834,0.59456 5.327026,0.66561 0.808687,0.0711 1.729247,0.15202 2.045689,0.17988 1.133548,0.0998 5.726596,-0.0482 7.600033,-0.24497 z m -17.572763,-4.98499 v -1.08678 h 12.274129 12.274128 v 1.08678 1.08677 H 26.514844 14.240715 Z m 0,-5.49778 v -1.08678 h 12.274129 12.274128 v 1.08678 1.08676 H 26.514844 14.240715 Z m 0,-5.56173 v -1.02284 h 12.274129 12.274128 v 1.02284 1.02285 H 26.514844 14.240715 Z"
       id="path826"
       inkscape:connector-curvature="0" />
  </g>
</svg>
